<?xml version="1.0" encoding="utf-8"?>
<!-- Svg Vector Icons : http://www.onlinewebfonts.com/icon -->
<!DOCTYPE svg PUBLIC "-//W3C//DTD SVG 1.1//EN" "http://www.w3.org/Graphics/SVG/1.1/DTD/svg11.dtd">
<svg version="1.1" xmlns="http://www.w3.org/2000/svg" xmlns:xlink="http://www.w3.org/1999/xlink" x="0px" y="0px" viewBox="0 0 256 256" enable-background="new 0 0 256 256" xml:space="preserve">
<metadata> Svg Vector Icons : http://www.onlinewebfonts.com/icon </metadata>
<g><g><path fill="#000000" d="M116.2,149.7l-19.6,19.6l19.6,19.6l-9.8,9.8l-19.6-19.6L67,198.8l-9.8-9.8l19.6-19.6l-19.6-19.6l9.8-9.8l19.7,19.6l19.6-19.6L116.2,149.7z M149.7,116.2l19.7-19.7l19.6,19.7l9.8-9.8l-19.7-19.6L198.8,67l-9.8-9.8l-19.6,19.6l-19.7-19.6l-9.8,9.8l19.6,19.7l-19.6,19.6L149.7,116.2z M246,57.2v141.6c0,26.1-21.1,47.2-47.2,47.2H57.2C31.1,246,10,224.9,10,198.8V57.2C10,31.1,31.1,10,57.2,10h141.6C224.9,10,246,31.1,246,57.2z M222.4,69c0-19.6-15.8-35.4-35.4-35.4H69c-19.6,0-35.4,15.9-35.4,35.4v118c0,19.6,15.9,35.4,35.4,35.4h118c19.6,0,35.4-15.8,35.4-35.4V69z M116.2,86.7c0,16.3-13.2,29.5-29.5,29.5c-16.3,0-29.5-13.2-29.5-29.5c0-16.3,13.2-29.5,29.5-29.5C103,57.2,116.2,70.4,116.2,86.7z M104.2,86.7c0-9.7-7.8-17.5-17.5-17.5S69.2,77,69.2,86.7c0,9.6,7.8,17.5,17.5,17.5S104.2,96.3,104.2,86.7z M198.8,169.3c0,16.3-13.2,29.5-29.5,29.5c-16.3,0-29.5-13.2-29.5-29.5c0-16.3,13.2-29.5,29.5-29.5C185.6,139.8,198.8,153,198.8,169.3z M186.8,169.3c0-9.7-7.8-17.5-17.5-17.5c-9.7,0-17.5,7.8-17.5,17.5s7.8,17.5,17.5,17.5C179,186.8,186.8,178.9,186.8,169.3z"/></g></g>
</svg>